<mxfile host="app.diagrams.net" modified="2023-05-24T04:42:37.756Z" agent="Mozilla/5.0 (Windows NT 10.0; Win64; x64) AppleWebKit/537.36 (KHTML, like Gecko) Chrome/113.0.0.0 Safari/537.36" etag="NSWXdQfkmZwQh3qTfIYO" version="21.3.3" type="github">
  <diagram id="prtHgNgQTEPvFCAcTncT" name="Page-1">
    <mxGraphModel dx="1877" dy="541" grid="1" gridSize="10" guides="1" tooltips="1" connect="1" arrows="1" fold="1" page="1" pageScale="1" pageWidth="827" pageHeight="1169" math="0" shadow="0">
      <root>
        <mxCell id="0" />
        <mxCell id="1" parent="0" />
        <mxCell id="dNxyNK7c78bLwvsdeMH5-11" value="Orgchart" style="swimlane;html=1;startSize=20;horizontal=1;containerType=tree;glass=0;" parent="1" vertex="1">
          <mxGeometry x="-800" y="30" width="1200" height="660" as="geometry" />
        </mxCell>
        <mxCell id="4yoWAe2XiLooEmu24a35-1" value="nama: post service&lt;br&gt;type : POST&lt;br&gt;http://localhost:4000/posts" style="rounded=0;whiteSpace=wrap;html=1;" vertex="1" parent="dNxyNK7c78bLwvsdeMH5-11">
          <mxGeometry x="55" y="170" width="150" height="60" as="geometry" />
        </mxCell>
        <mxCell id="4yoWAe2XiLooEmu24a35-3" value="Create New Post&lt;br&gt;type : PostCreated" style="text;html=1;strokeColor=none;fillColor=none;align=center;verticalAlign=middle;whiteSpace=wrap;rounded=0;" vertex="1" parent="dNxyNK7c78bLwvsdeMH5-11">
          <mxGeometry x="70" y="130" width="120" height="30" as="geometry" />
        </mxCell>
        <mxCell id="4yoWAe2XiLooEmu24a35-9" value="Create New Post&lt;br&gt;type : PostCreated" style="text;html=1;strokeColor=none;fillColor=none;align=center;verticalAlign=middle;whiteSpace=wrap;rounded=0;" vertex="1" parent="dNxyNK7c78bLwvsdeMH5-11">
          <mxGeometry x="205" y="180" width="120" height="30" as="geometry" />
        </mxCell>
        <mxCell id="4yoWAe2XiLooEmu24a35-37" style="edgeStyle=orthogonalEdgeStyle;rounded=0;orthogonalLoop=1;jettySize=auto;html=1;exitX=1;exitY=0.5;exitDx=0;exitDy=0;entryX=0;entryY=0.5;entryDx=0;entryDy=0;" edge="1" parent="dNxyNK7c78bLwvsdeMH5-11" source="4yoWAe2XiLooEmu24a35-10" target="4yoWAe2XiLooEmu24a35-26">
          <mxGeometry relative="1" as="geometry">
            <Array as="points">
              <mxPoint x="510" y="200" />
              <mxPoint x="510" y="70" />
            </Array>
          </mxGeometry>
        </mxCell>
        <mxCell id="4yoWAe2XiLooEmu24a35-38" style="edgeStyle=orthogonalEdgeStyle;rounded=0;orthogonalLoop=1;jettySize=auto;html=1;exitX=1;exitY=0.5;exitDx=0;exitDy=0;entryX=0;entryY=0.5;entryDx=0;entryDy=0;" edge="1" parent="dNxyNK7c78bLwvsdeMH5-11" source="4yoWAe2XiLooEmu24a35-10" target="4yoWAe2XiLooEmu24a35-35">
          <mxGeometry relative="1" as="geometry" />
        </mxCell>
        <mxCell id="4yoWAe2XiLooEmu24a35-41" style="edgeStyle=orthogonalEdgeStyle;rounded=0;orthogonalLoop=1;jettySize=auto;html=1;exitX=1;exitY=0.5;exitDx=0;exitDy=0;entryX=0;entryY=0.5;entryDx=0;entryDy=0;" edge="1" parent="dNxyNK7c78bLwvsdeMH5-11" source="4yoWAe2XiLooEmu24a35-10" target="4yoWAe2XiLooEmu24a35-39">
          <mxGeometry relative="1" as="geometry" />
        </mxCell>
        <mxCell id="4yoWAe2XiLooEmu24a35-42" style="edgeStyle=orthogonalEdgeStyle;rounded=0;orthogonalLoop=1;jettySize=auto;html=1;exitX=1;exitY=0.5;exitDx=0;exitDy=0;entryX=0;entryY=0.5;entryDx=0;entryDy=0;" edge="1" parent="dNxyNK7c78bLwvsdeMH5-11" source="4yoWAe2XiLooEmu24a35-10" target="4yoWAe2XiLooEmu24a35-40">
          <mxGeometry relative="1" as="geometry" />
        </mxCell>
        <mxCell id="4yoWAe2XiLooEmu24a35-10" value="nama: event-bus service&lt;br&gt;type : POST&lt;br&gt;http://localhost:4005/events" style="rounded=0;whiteSpace=wrap;html=1;" vertex="1" parent="dNxyNK7c78bLwvsdeMH5-11">
          <mxGeometry x="319" y="170" width="150" height="60" as="geometry" />
        </mxCell>
        <mxCell id="4yoWAe2XiLooEmu24a35-13" value="" style="endArrow=classic;html=1;rounded=0;entryX=0;entryY=0.75;entryDx=0;entryDy=0;exitX=1;exitY=0.75;exitDx=0;exitDy=0;" edge="1" parent="dNxyNK7c78bLwvsdeMH5-11" source="4yoWAe2XiLooEmu24a35-1" target="4yoWAe2XiLooEmu24a35-10">
          <mxGeometry width="50" height="50" relative="1" as="geometry">
            <mxPoint x="210" y="270" as="sourcePoint" />
            <mxPoint x="260" y="220" as="targetPoint" />
          </mxGeometry>
        </mxCell>
        <mxCell id="4yoWAe2XiLooEmu24a35-14" value="" style="shape=cylinder3;whiteSpace=wrap;html=1;boundedLbl=1;backgroundOutline=1;size=15;" vertex="1" parent="dNxyNK7c78bLwvsdeMH5-11">
          <mxGeometry x="100" y="280" width="60" height="80" as="geometry" />
        </mxCell>
        <mxCell id="4yoWAe2XiLooEmu24a35-15" value="Post Service Database" style="text;html=1;strokeColor=none;fillColor=none;align=center;verticalAlign=middle;whiteSpace=wrap;rounded=0;" vertex="1" parent="dNxyNK7c78bLwvsdeMH5-11">
          <mxGeometry x="70" y="370" width="120" height="30" as="geometry" />
        </mxCell>
        <mxCell id="4yoWAe2XiLooEmu24a35-18" value="Create New Post&lt;br&gt;type : PostCreated" style="text;html=1;strokeColor=none;fillColor=none;align=center;verticalAlign=middle;whiteSpace=wrap;rounded=0;" vertex="1" parent="dNxyNK7c78bLwvsdeMH5-11">
          <mxGeometry x="130" y="240" width="120" height="30" as="geometry" />
        </mxCell>
        <mxCell id="4yoWAe2XiLooEmu24a35-19" value="" style="endArrow=classic;html=1;rounded=0;exitX=0.5;exitY=1;exitDx=0;exitDy=0;" edge="1" parent="dNxyNK7c78bLwvsdeMH5-11" source="4yoWAe2XiLooEmu24a35-1" target="4yoWAe2XiLooEmu24a35-14">
          <mxGeometry width="50" height="50" relative="1" as="geometry">
            <mxPoint x="210" y="280" as="sourcePoint" />
            <mxPoint x="260" y="230" as="targetPoint" />
          </mxGeometry>
        </mxCell>
        <mxCell id="4yoWAe2XiLooEmu24a35-21" value="" style="shape=cylinder3;whiteSpace=wrap;html=1;boundedLbl=1;backgroundOutline=1;size=15;" vertex="1" parent="dNxyNK7c78bLwvsdeMH5-11">
          <mxGeometry x="364" y="280" width="60" height="80" as="geometry" />
        </mxCell>
        <mxCell id="4yoWAe2XiLooEmu24a35-22" value="Event Bus Database" style="text;html=1;strokeColor=none;fillColor=none;align=center;verticalAlign=middle;whiteSpace=wrap;rounded=0;" vertex="1" parent="dNxyNK7c78bLwvsdeMH5-11">
          <mxGeometry x="334" y="370" width="120" height="30" as="geometry" />
        </mxCell>
        <mxCell id="4yoWAe2XiLooEmu24a35-24" value="" style="endArrow=classic;html=1;rounded=0;exitX=0.5;exitY=1;exitDx=0;exitDy=0;" edge="1" parent="dNxyNK7c78bLwvsdeMH5-11" source="4yoWAe2XiLooEmu24a35-10" target="4yoWAe2XiLooEmu24a35-21">
          <mxGeometry width="50" height="50" relative="1" as="geometry">
            <mxPoint x="210" y="280" as="sourcePoint" />
            <mxPoint x="260" y="230" as="targetPoint" />
          </mxGeometry>
        </mxCell>
        <mxCell id="4yoWAe2XiLooEmu24a35-25" value="Create New Post&lt;br&gt;type : PostCreated" style="text;html=1;strokeColor=none;fillColor=none;align=center;verticalAlign=middle;whiteSpace=wrap;rounded=0;" vertex="1" parent="dNxyNK7c78bLwvsdeMH5-11">
          <mxGeometry x="387" y="240" width="120" height="30" as="geometry" />
        </mxCell>
        <mxCell id="4yoWAe2XiLooEmu24a35-44" style="edgeStyle=orthogonalEdgeStyle;rounded=0;orthogonalLoop=1;jettySize=auto;html=1;exitX=1;exitY=0.5;exitDx=0;exitDy=0;entryX=0;entryY=0.5;entryDx=0;entryDy=0;" edge="1" parent="dNxyNK7c78bLwvsdeMH5-11" source="4yoWAe2XiLooEmu24a35-26" target="4yoWAe2XiLooEmu24a35-43">
          <mxGeometry relative="1" as="geometry" />
        </mxCell>
        <mxCell id="4yoWAe2XiLooEmu24a35-26" value="nama: post service&lt;br&gt;type: POST&lt;br&gt;http://localhost:4000/events" style="rounded=0;whiteSpace=wrap;html=1;" vertex="1" parent="dNxyNK7c78bLwvsdeMH5-11">
          <mxGeometry x="550" y="40" width="150" height="60" as="geometry" />
        </mxCell>
        <mxCell id="4yoWAe2XiLooEmu24a35-30" value="&lt;h1&gt;&amp;nbsp; &amp;nbsp; &amp;nbsp;Proses 1&lt;/h1&gt;&lt;p&gt;&lt;/p&gt;&lt;ol&gt;&lt;li&gt;Post dibuat dan di kirimkan ke post service.&lt;/li&gt;&lt;li&gt;Post disimpan di database post service, kemudian di kirimkan ke event bus service, agar bisa dikirim ke service service lainnya&lt;/li&gt;&lt;/ol&gt;&lt;p&gt;&lt;/p&gt;&lt;p&gt;&lt;br&gt;&lt;/p&gt;" style="text;html=1;strokeColor=none;fillColor=none;spacing=5;spacingTop=-20;whiteSpace=wrap;overflow=hidden;rounded=0;" vertex="1" parent="dNxyNK7c78bLwvsdeMH5-11">
          <mxGeometry x="30" y="410" width="200" height="170" as="geometry" />
        </mxCell>
        <mxCell id="4yoWAe2XiLooEmu24a35-31" value="&lt;h1&gt;&amp;nbsp; &amp;nbsp; &amp;nbsp;Proses 2&lt;/h1&gt;&lt;p&gt;&lt;/p&gt;&lt;ol&gt;&lt;li&gt;Semua Post yang diterima oleh event bus service disimpan ke dalam event bus database&lt;/li&gt;&lt;li&gt;Data Post kemudian di kirim ke semua service agar nanti di proses&lt;/li&gt;&lt;/ol&gt;&lt;p&gt;&lt;/p&gt;&lt;p&gt;&lt;br&gt;&lt;/p&gt;" style="text;html=1;strokeColor=none;fillColor=none;spacing=5;spacingTop=-20;whiteSpace=wrap;overflow=hidden;rounded=0;" vertex="1" parent="dNxyNK7c78bLwvsdeMH5-11">
          <mxGeometry x="287" y="410" width="200" height="170" as="geometry" />
        </mxCell>
        <mxCell id="4yoWAe2XiLooEmu24a35-55" style="edgeStyle=orthogonalEdgeStyle;rounded=0;orthogonalLoop=1;jettySize=auto;html=1;exitX=1;exitY=0.5;exitDx=0;exitDy=0;entryX=0;entryY=0.5;entryDx=0;entryDy=0;" edge="1" parent="dNxyNK7c78bLwvsdeMH5-11" source="4yoWAe2XiLooEmu24a35-35" target="4yoWAe2XiLooEmu24a35-54">
          <mxGeometry relative="1" as="geometry" />
        </mxCell>
        <mxCell id="4yoWAe2XiLooEmu24a35-35" value="nama: comment service&lt;br&gt;type: POST&lt;br&gt;http://localhost:4001/events" style="rounded=0;whiteSpace=wrap;html=1;" vertex="1" parent="dNxyNK7c78bLwvsdeMH5-11">
          <mxGeometry x="550" y="130" width="150" height="60" as="geometry" />
        </mxCell>
        <mxCell id="4yoWAe2XiLooEmu24a35-51" style="edgeStyle=orthogonalEdgeStyle;rounded=0;orthogonalLoop=1;jettySize=auto;html=1;exitX=1;exitY=0.5;exitDx=0;exitDy=0;" edge="1" parent="dNxyNK7c78bLwvsdeMH5-11" source="4yoWAe2XiLooEmu24a35-39" target="4yoWAe2XiLooEmu24a35-50">
          <mxGeometry relative="1" as="geometry" />
        </mxCell>
        <mxCell id="4yoWAe2XiLooEmu24a35-39" value="nama: query service&lt;br&gt;type: POST&lt;br&gt;http://localhost:4002/events" style="rounded=0;whiteSpace=wrap;html=1;" vertex="1" parent="dNxyNK7c78bLwvsdeMH5-11">
          <mxGeometry x="550" y="220" width="150" height="60" as="geometry" />
        </mxCell>
        <mxCell id="4yoWAe2XiLooEmu24a35-57" style="edgeStyle=orthogonalEdgeStyle;rounded=0;orthogonalLoop=1;jettySize=auto;html=1;exitX=1;exitY=0.5;exitDx=0;exitDy=0;entryX=0;entryY=0.5;entryDx=0;entryDy=0;" edge="1" parent="dNxyNK7c78bLwvsdeMH5-11" source="4yoWAe2XiLooEmu24a35-40" target="4yoWAe2XiLooEmu24a35-56">
          <mxGeometry relative="1" as="geometry" />
        </mxCell>
        <mxCell id="4yoWAe2XiLooEmu24a35-40" value="nama: moderation service&lt;br&gt;type: POST&lt;br&gt;http://localhost:4001/events" style="rounded=0;whiteSpace=wrap;html=1;" vertex="1" parent="dNxyNK7c78bLwvsdeMH5-11">
          <mxGeometry x="550" y="310" width="150" height="60" as="geometry" />
        </mxCell>
        <mxCell id="4yoWAe2XiLooEmu24a35-43" value="Received&lt;br&gt;Events" style="ellipse;whiteSpace=wrap;html=1;" vertex="1" parent="dNxyNK7c78bLwvsdeMH5-11">
          <mxGeometry x="760" y="35" width="70" height="70" as="geometry" />
        </mxCell>
        <mxCell id="4yoWAe2XiLooEmu24a35-47" value="query service database" style="text;html=1;strokeColor=none;fillColor=none;align=center;verticalAlign=middle;whiteSpace=wrap;rounded=0;" vertex="1" parent="dNxyNK7c78bLwvsdeMH5-11">
          <mxGeometry x="840" y="290" width="80" height="30" as="geometry" />
        </mxCell>
        <mxCell id="4yoWAe2XiLooEmu24a35-48" value="Create New Post&lt;br&gt;type : PostCreated" style="text;html=1;strokeColor=none;fillColor=none;align=center;verticalAlign=middle;whiteSpace=wrap;rounded=0;" vertex="1" parent="dNxyNK7c78bLwvsdeMH5-11">
          <mxGeometry x="710" y="250" width="120" height="30" as="geometry" />
        </mxCell>
        <mxCell id="4yoWAe2XiLooEmu24a35-50" value="" style="shape=cylinder3;whiteSpace=wrap;html=1;boundedLbl=1;backgroundOutline=1;size=15;" vertex="1" parent="dNxyNK7c78bLwvsdeMH5-11">
          <mxGeometry x="850" y="210" width="60" height="80" as="geometry" />
        </mxCell>
        <mxCell id="4yoWAe2XiLooEmu24a35-52" value="&lt;br&gt;postId: {&lt;br&gt;id:132102,&lt;br&gt;title: post_title,&lt;br&gt;comments: []&lt;br&gt;}" style="text;html=1;strokeColor=none;fillColor=none;align=center;verticalAlign=middle;whiteSpace=wrap;rounded=0;" vertex="1" parent="dNxyNK7c78bLwvsdeMH5-11">
          <mxGeometry x="920" y="235" width="80" height="30" as="geometry" />
        </mxCell>
        <mxCell id="4yoWAe2XiLooEmu24a35-53" value="&lt;h1&gt;&amp;nbsp; &amp;nbsp; &amp;nbsp;Proses 3&lt;/h1&gt;&lt;p&gt;&lt;/p&gt;&lt;ol&gt;&lt;li&gt;Post diterima disemua service dengan melakukan kembalian berupa console log Received Events&lt;/li&gt;&lt;li&gt;&lt;br&gt;&lt;/li&gt;&lt;/ol&gt;&lt;p&gt;&lt;/p&gt;&lt;p&gt;&lt;br&gt;&lt;/p&gt;" style="text;html=1;strokeColor=none;fillColor=none;spacing=5;spacingTop=-20;whiteSpace=wrap;overflow=hidden;rounded=0;" vertex="1" parent="dNxyNK7c78bLwvsdeMH5-11">
          <mxGeometry x="540" y="410" width="200" height="170" as="geometry" />
        </mxCell>
        <mxCell id="4yoWAe2XiLooEmu24a35-54" value="Received&lt;br&gt;Events" style="ellipse;whiteSpace=wrap;html=1;" vertex="1" parent="dNxyNK7c78bLwvsdeMH5-11">
          <mxGeometry x="760" y="125" width="70" height="70" as="geometry" />
        </mxCell>
        <mxCell id="4yoWAe2XiLooEmu24a35-56" value="Received&lt;br&gt;Events" style="ellipse;whiteSpace=wrap;html=1;" vertex="1" parent="dNxyNK7c78bLwvsdeMH5-11">
          <mxGeometry x="760" y="305" width="70" height="70" as="geometry" />
        </mxCell>
      </root>
    </mxGraphModel>
  </diagram>
</mxfile>
